<svg xmlns="http://www.w3.org/2000/svg" version="1.1" xmlns:xlink="http://www.w3.org/1999/xlink" width="1000" height="1000"><g clip-path="url(#SvgjsClipPath1003)"><rect width="1000" height="1000" fill="#ffffff"></rect><g transform="matrix(3.5,0,0,3.5,150,150)"><svg xmlns="http://www.w3.org/2000/svg" version="1.1" xmlns:xlink="http://www.w3.org/1999/xlink" width="200" height="200"><svg xmlns="http://www.w3.org/2000/svg" version="1.1" xmlns:xlink="http://www.w3.org/1999/xlink" viewBox="0 0 200 200"><rect width="200" height="200" fill="url('#gradient')"></rect><defs><linearGradient id="gradient" gradientTransform="rotate(72 0.5 0.5)"><stop offset="0%" stop-color="#79a0b7"></stop><stop offset="100%" stop-color="#bad9ea"></stop></linearGradient><clipPath id="SvgjsClipPath1003"><rect width="1000" height="1000" x="0" y="0" rx="350" ry="350"></rect></clipPath></defs><g><g fill="#1b3855" transform="matrix(1.8929660781957667,0,0,1.8929660781957667,-2.0322404841594874,113.45389857681349)" stroke="#0e5278" stroke-width="1.35"><path d="M6.69-4.82L4.50-4.82L4.50 0L1.07 0L1.07-14.22L6.75-14.22Q8.38-14.22 9.63-13.62Q10.89-13.02 11.58-11.91Q12.27-10.80 12.27-9.39L12.27-9.39Q12.27-7.31 10.78-6.07Q9.29-4.82 6.69-4.82L6.69-4.82ZM4.50-11.57L4.50-7.47L6.75-7.47Q7.74-7.47 8.27-7.97Q8.79-8.47 8.79-9.38L8.79-9.38Q8.79-10.37 8.25-10.97Q7.71-11.56 6.79-11.57L6.79-11.57L4.50-11.57ZM26.13-7.47L26.13-6.82Q26.13-4.74 25.36-3.13Q24.59-1.53 23.17-0.67Q21.75 0.20 19.93 0.20Q18.12 0.20 16.71-0.64Q15.30-1.47 14.52-3.03Q13.73-4.58 13.69-6.59L13.69-6.59L13.69-7.39Q13.69-9.48 14.46-11.08Q15.22-12.68 16.66-13.54Q18.09-14.41 19.91-14.41L19.91-14.41Q21.72-14.41 23.13-13.55Q24.55-12.70 25.34-11.11Q26.12-9.52 26.13-7.47L26.13-7.47ZM22.65-6.76L22.65-7.41Q22.65-9.53 21.94-10.63Q21.23-11.73 19.91-11.73L19.91-11.73Q17.33-11.73 17.19-7.86L17.19-7.86L17.18-6.82Q17.18-4.73 17.87-3.60Q18.56-2.48 19.93-2.48L19.93-2.48Q21.23-2.48 21.93-3.58Q22.64-4.69 22.65-6.76L22.65-6.76ZM35.69 0L33.18-5.02L31.33-5.02L31.33 0L27.90 0L27.90-14.22L33.50-14.22Q36.03-14.22 37.45-13.10Q38.88-11.97 38.88-9.92L38.88-9.92Q38.88-8.44 38.28-7.46Q37.68-6.48 36.40-5.88L36.40-5.88L39.37-0.15L39.37 0L35.69 0ZM31.33-11.57L31.33-7.67L33.50-7.67Q34.47-7.67 34.97-8.18Q35.46-8.69 35.46-9.61Q35.46-10.53 34.96-11.05Q34.46-11.57 33.50-11.57L33.50-11.57L31.33-11.57ZM51.62-14.22L51.62-11.57L47.35-11.57L47.35 0L43.93 0L43.93-11.57L39.74-11.57L39.74-14.22L51.62-14.22ZM62.02-8.30L62.02-5.66L56.49-5.66L56.49 0L53.07 0L53.07-14.22L62.58-14.22L62.58-11.57L56.49-11.57L56.49-8.30L62.02-8.30ZM76.04-7.47L76.04-6.82Q76.04-4.74 75.27-3.13Q74.50-1.53 73.08-0.67Q71.66 0.20 69.84 0.20Q68.03 0.20 66.62-0.64Q65.21-1.47 64.43-3.03Q63.64-4.58 63.60-6.59L63.60-6.59L63.60-7.39Q63.60-9.48 64.37-11.08Q65.14-12.68 66.57-13.54Q68.00-14.41 69.82-14.41L69.82-14.41Q71.63-14.41 73.05-13.55Q74.46-12.70 75.25-11.11Q76.04-9.52 76.04-7.47L76.04-7.47ZM72.56-6.76L72.56-7.41Q72.56-9.53 71.85-10.63Q71.14-11.73 69.82-11.73L69.82-11.73Q67.25-11.73 67.10-7.86L67.10-7.86L67.09-6.82Q67.09-4.73 67.78-3.60Q68.48-2.48 69.84-2.48L69.84-2.48Q71.14-2.48 71.85-3.58Q72.55-4.69 72.56-6.76L72.56-6.76ZM81.24-14.22L81.24-2.64L87.21-2.64L87.21 0L77.81 0L77.81-14.22L81.24-14.22ZM92.30-14.22L92.30 0L88.89 0L88.89-14.22L92.30-14.22ZM106.73-7.47L106.73-6.82Q106.73-4.74 105.96-3.13Q105.19-1.53 103.76-0.67Q102.34 0.20 100.53 0.20Q98.71 0.20 97.30-0.64Q95.90-1.47 95.11-3.03Q94.33-4.58 94.29-6.59L94.29-6.59L94.29-7.39Q94.29-9.48 95.05-11.08Q95.82-12.68 97.25-13.54Q98.68-14.41 100.51-14.41L100.51-14.41Q102.31-14.41 103.73-13.55Q105.15-12.70 105.93-11.11Q106.72-9.52 106.73-7.47L106.73-7.47ZM103.24-6.76L103.24-7.41Q103.24-9.53 102.53-10.63Q101.83-11.73 100.51-11.73L100.51-11.73Q97.93-11.73 97.78-7.86L97.78-7.86L97.77-6.82Q97.77-4.73 98.47-3.60Q99.16-2.48 100.53-2.48L100.53-2.48Q101.83-2.48 102.53-3.58Q103.23-4.69 103.24-6.76L103.24-6.76Z"></path></g></g></svg></svg></g></g></svg>